HIERARCHY
ROOT hip
{
OFFSET -0.10 86.01 0.06
CHANNELS 6 Xposition Yposition Zposition Zrotation Xrotation Yrotation
JOINT abdomen
{
OFFSET 0 7.23 0
CHANNELS 6 Xposition Yposition Zposition Zrotation Xrotation Yrotation
JOINT chest
{
OFFSET 0 16.54 -0
CHANNELS 6 Xposition Yposition Zposition Zrotation Xrotation Yrotation
JOINT neck
{
OFFSET 0 34.21 -0
CHANNELS 6 Xposition Yposition Zposition Zrotation Xrotation Yrotation
JOINT head
{
OFFSET 0 6.29 0
CHANNELS 6 Xposition Yposition Zposition Zrotation Xrotation Yrotation
End Site
{
OFFSET 0 0 0
}
}
}
JOINT lCollar
{
OFFSET 4.06 26.61 -1.12
CHANNELS 6 Xposition Yposition Zposition Zrotation Xrotation Yrotation
JOINT lShldr
{
OFFSET 14.17 0 0
CHANNELS 6 Xposition Yposition Zposition Zrotation Xrotation Yrotation
JOINT lForeArm
{
OFFSET 26.12 0 0
CHANNELS 6 Xposition Yposition Zposition Zrotation Xrotation Yrotation
JOINT lHand
{
OFFSET 27.71 0 0
CHANNELS 6 Xposition Yposition Zposition Zrotation Xrotation Yrotation
JOINT lThumb1
{
OFFSET 2.29 -0.46 1.83
CHANNELS 6 Xposition Yposition Zposition Zrotation Xrotation Yrotation
JOINT lThumb2
{
OFFSET 5.29 0 0
CHANNELS 6 Xposition Yposition Zposition Zrotation Xrotation Yrotation
JOINT lThumb3
{
OFFSET 3.01 0 0
CHANNELS 6 Xposition Yposition Zposition Zrotation Xrotation Yrotation
End Site
{
OFFSET 0 0 0
}
}
}
}
JOINT lIndex1
{
OFFSET 9.37 0.29 2.59
CHANNELS 6 Xposition Yposition Zposition Zrotation Xrotation Yrotation
JOINT lIndex2
{
OFFSET 4.34 0 0
CHANNELS 6 Xposition Yposition Zposition Zrotation Xrotation Yrotation
JOINT lIndex3
{
OFFSET 2.16 0 0
CHANNELS 6 Xposition Yposition Zposition Zrotation Xrotation Yrotation
End Site
{
OFFSET 0 0 0
}
}
}
}
JOINT lMid1
{
OFFSET 9.47 0.83 0.29
CHANNELS 6 Xposition Yposition Zposition Zrotation Xrotation Yrotation
JOINT lMid2
{
OFFSET 4.77 0 0
CHANNELS 6 Xposition Yposition Zposition Zrotation Xrotation Yrotation
JOINT lMid3
{
OFFSET 2.87 0 0
CHANNELS 6 Xposition Yposition Zposition Zrotation Xrotation Yrotation
End Site
{
OFFSET 0 0 0
}
}
}
}
JOINT lRing1
{
OFFSET 8.65 1.01 -1.70
CHANNELS 6 Xposition Yposition Zposition Zrotation Xrotation Yrotation
JOINT lRing2
{
OFFSET 4.54 0 0
CHANNELS 6 Xposition Yposition Zposition Zrotation Xrotation Yrotation
JOINT lRing3
{
OFFSET 2.50 0 0
CHANNELS 6 Xposition Yposition Zposition Zrotation Xrotation Yrotation
End Site
{
OFFSET 0 0 0
}
}
}
}
JOINT lPinky1
{
OFFSET 7.69 0.66 -3.90
CHANNELS 6 Xposition Yposition Zposition Zrotation Xrotation Yrotation
JOINT lPinky2
{
OFFSET 3.21 0 0
CHANNELS 6 Xposition Yposition Zposition Zrotation Xrotation Yrotation
JOINT lPinky3
{
OFFSET 1.92 0 0
CHANNELS 6 Xposition Yposition Zposition Zrotation Xrotation Yrotation
End Site
{
OFFSET 0 0 0
}
}
}
}
}
}
}
}
JOINT rCollar
{
OFFSET -4.06 26.61 -1.12
CHANNELS 6 Xposition Yposition Zposition Zrotation Xrotation Yrotation
JOINT rShldr
{
OFFSET -14.17 0 0
CHANNELS 6 Xposition Yposition Zposition Zrotation Xrotation Yrotation
JOINT rForeArm
{
OFFSET -26.12 0 0
CHANNELS 6 Xposition Yposition Zposition Zrotation Xrotation Yrotation
JOINT rHand
{
OFFSET -27.71 0 0
CHANNELS 6 Xposition Yposition Zposition Zrotation Xrotation Yrotation
JOINT rThumb1
{
OFFSET -2.29 -0.46 1.83
CHANNELS 6 Xposition Yposition Zposition Zrotation Xrotation Yrotation
JOINT rThumb2
{
OFFSET -5.29 0 0
CHANNELS 6 Xposition Yposition Zposition Zrotation Xrotation Yrotation
JOINT rThumb3
{
OFFSET -3.01 0 0
CHANNELS 6 Xposition Yposition Zposition Zrotation Xrotation Yrotation
End Site
{
OFFSET 0 0 0
}
}
}
}
JOINT rIndex1
{
OFFSET -9.37 0.29 2.59
CHANNELS 6 Xposition Yposition Zposition Zrotation Xrotation Yrotation
JOINT rIndex2
{
OFFSET -4.34 0 0
CHANNELS 6 Xposition Yposition Zposition Zrotation Xrotation Yrotation
JOINT rIndex3
{
OFFSET -2.16 0 0
CHANNELS 6 Xposition Yposition Zposition Zrotation Xrotation Yrotation
End Site
{
OFFSET 0 0 0
}
}
}
}
JOINT rMid1
{
OFFSET -9.47 0.83 0.29
CHANNELS 6 Xposition Yposition Zposition Zrotation Xrotation Yrotation
JOINT rMid2
{
OFFSET -4.77 0 0
CHANNELS 6 Xposition Yposition Zposition Zrotation Xrotation Yrotation
JOINT rMid3
{
OFFSET -2.87 0 0
CHANNELS 6 Xposition Yposition Zposition Zrotation Xrotation Yrotation
End Site
{
OFFSET 0 0 0
}
}
}
}
JOINT rRing1
{
OFFSET -8.65 1.01 -1.70
CHANNELS 6 Xposition Yposition Zposition Zrotation Xrotation Yrotation
JOINT rRing2
{
OFFSET -4.54 0 0
CHANNELS 6 Xposition Yposition Zposition Zrotation Xrotation Yrotation
JOINT rRing3
{
OFFSET -2.50 0 0
CHANNELS 6 Xposition Yposition Zposition Zrotation Xrotation Yrotation
End Site
{
OFFSET 0 0 0
}
}
}
}
JOINT rPinky1
{
OFFSET -7.69 0.66 -3.90
CHANNELS 6 Xposition Yposition Zposition Zrotation Xrotation Yrotation
JOINT rPinky2
{
OFFSET -3.21 0 0
CHANNELS 6 Xposition Yposition Zposition Zrotation Xrotation Yrotation
JOINT rPinky3
{
OFFSET -1.92 0 0
CHANNELS 6 Xposition Yposition Zposition Zrotation Xrotation Yrotation
End Site
{
OFFSET 0 0 0
}
}
}
}
}
}
}
}
}
}
JOINT lThigh
{
OFFSET 8.73 -0 0
CHANNELS 6 Xposition Yposition Zposition Zrotation Xrotation Yrotation
JOINT lShin
{
OFFSET 0 -46.66 0
CHANNELS 6 Xposition Yposition Zposition Zrotation Xrotation Yrotation
JOINT lFoot
{
OFFSET 0 -40.14 0
CHANNELS 6 Xposition Yposition Zposition Zrotation Xrotation Yrotation
JOINT lToes
{
OFFSET 0 -8.88 14.22
CHANNELS 6 Xposition Yposition Zposition Zrotation Xrotation Yrotation
End Site
{
OFFSET 0 0 0
}
}
}
}
}
JOINT rThigh
{
OFFSET -8.73 0 -0
CHANNELS 6 Xposition Yposition Zposition Zrotation Xrotation Yrotation
JOINT rShin
{
OFFSET 0 -46.66 0
CHANNELS 6 Xposition Yposition Zposition Zrotation Xrotation Yrotation
JOINT rFoot
{
OFFSET 0 -40.14 0
CHANNELS 6 Xposition Yposition Zposition Zrotation Xrotation Yrotation
JOINT rToes
{
OFFSET 0 -8.88 14.22
CHANNELS 6 Xposition Yposition Zposition Zrotation Xrotation Yrotation
End Site
{
OFFSET 0 0 0
}
}
}
}
}
}
MOTION
Frames: 6
Frame Time: 0.03
-0.10 86.01 0.06 -1.80 1.09 -36.36 0 7.23 0 -0.10 -1.78 -0.57 0 16.54 -0 -1.09 2.22 -2.61 0 34.21 -0 -0.59 21.12 1.14 0 6.29 0 -9.37 -6.95 44.02 4.06 26.61 -1.12 -6.65 -5.30 6.08 14.17 0 0 -63.33 39.27 -3.13 26.12 0 0 -0 0 -79.26 27.71 0 0 -22.84 -5.07 -10.75 2.29 -0.46 1.83 60.55 59.81 -94.87 5.29 0 0 -31.62 1.78 13.52 3.01 0 0 -9.29 4.86 11.98 9.37 0.29 2.59 -14.84 3.00 -1.79 4.34 0 0 -17.05 2.95 12.80 2.16 0 0 -39.58 -1.85 3.38 9.47 0.83 0.29 -17.70 -19.65 -0.82 4.77 0 0 -25.26 1.27 15.79 2.87 0 0 -42.85 -5.38 11.90 8.65 1.01 -1.70 -25.51 -10.38 2.28 4.54 0 0 -23.47 0.26 7.66 2.50 0 0 -24.24 -1.28 4.61 7.69 0.66 -3.90 -12.73 -8.19 -2.12 3.21 0 0 -51.14 -7.95 12.29 1.92 0 0 -72.20 -16.64 20.97 -4.06 26.61 -1.12 7.16 -5.24 -5.16 -14.17 0 0 52.50 5.13 44.40 -26.12 0 0 0 0 109.22 -27.71 0 0 -26.68 8.61 -5.95 -2.29 -0.46 1.83 -58.05 34.86 97.98 -5.29 0 0 3.13 -12.29 -11.73 -3.01 0 0 49.17 21.55 -13.56 -9.37 0.29 2.59 44.26 -16.28 -19.27 -4.34 0 0 39.43 1.04 -17.18 -2.16 0 0 32.42 -1.98 -6.38 -9.47 0.83 0.29 71.81 -24.27 -17.64 -4.77 0 0 87.27 -15.40 -16.24 -2.87 0 0 44.78 -4.46 -12.79 -8.65 1.01 -1.70 72.40 -20.74 -15.78 -4.54 0 0 80.31 -7.53 -8.92 -2.50 0 0 47.93 -2.94 -7.77 -7.69 0.66 -3.90 85.69 -30.71 -4.49 -3.21 0 0 73.39 -11.48 -8.29 -1.92 0 0 39.93 -4.93 -15.33 8.73 -0 0 33.09 -23.83 44.30 0 -46.66 0 0 50.12 0 0 -40.14 0 -6.14 -10.81 10.57 0 -8.88 14.22 0 0 0 -8.73 0 -0 -17.94 -15.59 -16.49 0 -46.66 0 0 47.97 0 0 -40.14 0 14.81 -27.53 1.15 0 -8.88 14.22 0 0 0 
-0.12 86.05 0.07 -1.77 1.09 -36.35 0 7.23 0 -0.11 -1.79 -0.59 0 16.54 -0 -1.07 2.03 -2.66 0 34.21 -0 -0.59 21.16 1.15 0 6.29 0 -9.51 -6.82 44.12 4.06 26.61 -1.12 -6.47 -5.29 6.19 14.17 0 0 -63.21 39.30 -3.36 26.12 0 0 -0 0 -79.27 27.71 0 0 -22.72 -5.39 -10.82 2.29 -0.46 1.83 60.55 59.81 -94.87 5.29 0 0 -31.62 1.78 13.52 3.01 0 0 -9.29 4.86 11.98 9.37 0.29 2.59 -14.84 3.00 -1.79 4.34 0 0 -17.05 2.95 12.80 2.16 0 0 -39.58 -1.85 3.38 9.47 0.83 0.29 -17.70 -19.24 -0.74 4.77 0 0 -25.26 1.27 15.79 2.87 0 0 -42.85 -5.38 11.90 8.65 1.01 -1.70 -25.51 -10.38 2.28 4.54 0 0 -23.47 0.26 7.66 2.50 0 0 -24.24 -1.28 4.61 7.69 0.66 -3.90 -12.73 -8.19 -2.12 3.21 0 0 -51.14 -7.95 12.29 1.92 0 0 -72.20 -16.64 20.97 -4.06 26.61 -1.12 7.01 -5.24 -5.26 -14.17 0 0 52.53 5.33 44.61 -26.12 0 0 0 0 109.25 -27.71 0 0 -26.70 8.50 -6.12 -2.29 -0.46 1.83 -58.05 34.86 97.98 -5.29 0 0 3.13 -12.29 -11.73 -3.01 0 0 49.17 21.55 -13.56 -9.37 0.29 2.59 44.26 -16.28 -19.27 -4.34 0 0 39.43 1.04 -17.18 -2.16 0 0 32.42 -1.98 -6.38 -9.47 0.83 0.29 71.81 -24.27 -17.64 -4.77 0 0 87.27 -15.40 -16.24 -2.87 0 0 44.78 -4.46 -12.79 -8.65 1.01 -1.70 72.40 -20.74 -15.78 -4.54 0 0 80.31 -7.53 -8.92 -2.50 0 0 47.93 -2.94 -7.77 -7.69 0.66 -3.90 85.69 -30.71 -4.49 -3.21 0 0 73.39 -11.48 -8.29 -1.92 0 0 39.93 -4.93 -15.33 8.73 -0 0 33.05 -23.81 44.35 0 -46.66 0 0 49.97 0 0 -40.14 0 -6.14 -10.75 10.55 0 -8.88 14.22 0 0 0 -8.73 0 -0 -17.93 -15.61 -16.53 0 -46.66 0 0 47.82 0 0 -40.14 0 14.82 -27.44 1.15 0 -8.88 14.22 0 0 0 
-0.15 86.10 0.08 -1.73 1.09 -36.34 0 7.23 0 -0.12 -1.80 -0.61 0 16.54 -0 -1.04 1.83 -2.71 0 34.21 -0 -0.59 21.20 1.15 0 6.29 0 -9.65 -6.69 44.23 4.06 26.61 -1.12 -6.28 -5.28 6.30 14.17 0 0 -63.08 39.34 -3.59 26.12 0 0 0 0 -79.28 27.71 0 0 -22.60 -5.72 -10.89 2.29 -0.46 1.83 60.55 59.81 -94.87 5.29 0 0 -31.62 1.78 13.52 3.01 0 0 -9.29 4.86 11.98 9.37 0.29 2.59 -14.84 3.00 -1.79 4.34 0 0 -17.05 2.95 12.80 2.16 0 0 -39.58 -1.85 3.38 9.47 0.83 0.29 -17.69 -18.84 -0.67 4.77 0 0 -25.26 1.27 15.79 2.87 0 0 -42.85 -5.38 11.90 8.65 1.01 -1.70 -25.51 -10.38 2.28 4.54 0 0 -23.47 0.26 7.66 2.50 0 0 -24.24 -1.28 4.61 7.69 0.66 -3.90 -12.73 -8.19 -2.12 3.21 0 0 -51.14 -7.95 12.29 1.92 0 0 -72.20 -16.64 20.97 -4.06 26.61 -1.12 6.85 -5.24 -5.35 -14.17 0 0 52.57 5.53 44.82 -26.12 0 0 0 0 109.28 -27.71 0 0 -26.70 8.40 -6.28 -2.29 -0.46 1.83 -58.05 34.86 97.98 -5.29 0 0 3.13 -12.29 -11.73 -3.01 0 0 49.17 21.55 -13.56 -9.37 0.29 2.59 44.26 -16.28 -19.27 -4.34 0 0 39.43 1.04 -17.18 -2.16 0 0 32.42 -1.98 -6.38 -9.47 0.83 0.29 71.81 -24.27 -17.64 -4.77 0 0 87.27 -15.40 -16.24 -2.87 0 0 44.78 -4.46 -12.79 -8.65 1.01 -1.70 72.40 -20.74 -15.78 -4.54 0 0 80.31 -7.53 -8.92 -2.50 0 0 47.93 -2.94 -7.77 -7.69 0.66 -3.90 85.69 -30.71 -4.49 -3.21 0 0 73.39 -11.48 -8.29 -1.92 0 0 39.93 -4.93 -15.33 8.73 -0 0 33.01 -23.79 44.40 0 -46.66 0 0 49.81 0 0 -40.14 0 -6.13 -10.69 10.52 0 -8.88 14.22 0 0 0 -8.73 0 -0 -17.92 -15.63 -16.58 0 -46.66 0 0 47.68 0 0 -40.14 0 14.84 -27.34 1.15 0 -8.88 14.22 0 0 0 
-0.18 86.14 0.09 -1.69 1.09 -36.33 0 7.23 0 -0.13 -1.80 -0.63 0 16.54 -0 -1.01 1.62 -2.75 0 34.21 -0 -0.59 21.24 1.15 0 6.29 0 -9.79 -6.55 44.34 4.06 26.61 -1.12 -6.10 -5.27 6.41 14.17 0 0 -62.95 39.37 -3.83 26.12 0 0 -0 0 -79.29 27.71 0 0 -22.47 -6.06 -10.95 2.29 -0.46 1.83 60.55 59.81 -94.87 5.29 0 0 -31.62 1.78 13.52 3.01 0 0 -9.29 4.86 11.98 9.37 0.29 2.59 -14.84 3.00 -1.79 4.34 0 0 -17.05 2.95 12.80 2.16 0 0 -39.58 -1.85 3.38 9.47 0.83 0.29 -17.69 -18.44 -0.60 4.77 0 0 -25.26 1.27 15.79 2.87 0 0 -42.85 -5.38 11.90 8.65 1.01 -1.70 -25.51 -10.38 2.28 4.54 0 0 -23.47 0.26 7.66 2.50 0 0 -24.24 -1.28 4.61 7.69 0.66 -3.90 -12.73 -8.19 -2.12 3.21 0 0 -51.14 -7.95 12.29 1.92 0 0 -72.20 -16.64 20.97 -4.06 26.61 -1.12 6.70 -5.23 -5.45 -14.17 0 0 52.61 5.72 45.03 -26.12 0 0 0 0 109.31 -27.71 0 0 -26.70 8.29 -6.45 -2.29 -0.46 1.83 -58.05 34.86 97.98 -5.29 0 0 3.13 -12.29 -11.73 -3.01 0 0 49.17 21.55 -13.56 -9.37 0.29 2.59 44.26 -16.28 -19.27 -4.34 0 0 39.43 1.04 -17.18 -2.16 0 0 32.42 -1.98 -6.38 -9.47 0.83 0.29 71.81 -24.27 -17.64 -4.77 0 0 87.27 -15.40 -16.24 -2.87 0 0 44.78 -4.46 -12.79 -8.65 1.01 -1.70 72.40 -20.74 -15.78 -4.54 0 0 80.31 -7.53 -8.92 -2.50 0 0 47.93 -2.94 -7.77 -7.69 0.66 -3.90 85.69 -30.71 -4.49 -3.21 0 0 73.39 -11.48 -8.29 -1.92 0 0 39.93 -4.93 -15.33 8.73 -0 0 32.97 -23.77 44.45 0 -46.66 0 0 49.65 0 0 -40.14 0 -6.12 -10.63 10.50 0 -8.88 14.22 0 0 0 -8.73 0 -0 -17.90 -15.65 -16.62 0 -46.66 0 0 47.53 0 0 -40.14 0 14.86 -27.24 1.16 0 -8.88 14.22 0 0 0 
-0.21 86.19 0.10 -1.65 1.10 -36.32 0 7.23 0 -0.14 -1.81 -0.66 0 16.54 -0 -0.98 1.42 -2.80 -0 34.21 -0 -0.59 21.27 1.16 0 6.29 0 -9.94 -6.40 44.45 4.06 26.61 -1.12 -5.92 -5.26 6.52 14.17 0 0 -62.81 39.41 -4.06 26.12 0 0 -0 0 -79.31 27.71 0 0 -22.35 -6.39 -11.02 2.29 -0.46 1.83 60.55 59.81 -94.87 5.29 0 0 -31.62 1.78 13.52 3.01 0 0 -9.29 4.86 11.98 9.37 0.29 2.59 -14.84 3.00 -1.79 4.34 0 0 -17.05 2.95 12.80 2.16 0 0 -39.58 -1.85 3.38 9.47 0.83 0.29 -17.68 -18.04 -0.53 4.77 0 0 -25.26 1.27 15.79 2.87 0 0 -42.85 -5.38 11.90 8.65 1.01 -1.70 -25.51 -10.38 2.28 4.54 0 0 -23.47 0.26 7.66 2.50 0 0 -24.24 -1.28 4.61 7.69 0.66 -3.90 -12.73 -8.19 -2.12 3.21 0 0 -51.14 -7.95 12.29 1.92 0 0 -72.20 -16.64 20.97 -4.06 26.61 -1.12 6.54 -5.22 -5.54 -14.17 0 0 52.65 5.92 45.24 -26.12 0 0 0 0 109.34 -27.71 0 0 -26.70 8.19 -6.61 -2.29 -0.46 1.83 -58.05 34.86 97.98 -5.29 0 0 3.13 -12.29 -11.73 -3.01 0 0 49.17 21.55 -13.56 -9.37 0.29 2.59 44.26 -16.28 -19.27 -4.34 0 0 39.43 1.04 -17.18 -2.16 0 0 32.42 -1.98 -6.38 -9.47 0.83 0.29 71.81 -24.27 -17.64 -4.77 0 0 87.27 -15.40 -16.24 -2.87 0 0 44.78 -4.46 -12.79 -8.65 1.01 -1.70 72.40 -20.74 -15.78 -4.54 0 0 80.31 -7.53 -8.92 -2.50 0 0 47.93 -2.94 -7.77 -7.69 0.66 -3.90 85.69 -30.71 -4.49 -3.21 0 0 73.39 -11.48 -8.29 -1.92 0 0 39.93 -4.93 -15.33 8.73 -0 0 32.93 -23.75 44.50 0 -46.66 0 0 49.50 0 0 -40.14 0 -6.11 -10.57 10.48 0 -8.88 14.22 0 0 0 -8.73 0 -0 -17.89 -15.67 -16.67 0 -46.66 0 0 47.38 0 0 -40.14 0 14.87 -27.14 1.16 0 -8.88 14.22 0 0 0 
-0.24 86.24 0.11 -1.60 1.10 -36.31 0 7.23 0 -0.15 -1.82 -0.68 0 16.54 -0 -0.95 1.21 -2.85 0 34.21 -0 -0.59 21.31 1.16 0 6.29 0 -10.08 -6.26 44.57 4.06 26.61 -1.12 -5.74 -5.25 6.63 14.17 0 0 -62.68 39.44 -4.30 26.12 0 0 -0 0 -79.32 27.71 0 0 -22.23 -6.73 -11.08 2.29 -0.46 1.83 60.55 59.81 -94.87 5.29 0 0 -31.62 1.78 13.52 3.01 0 0 -9.29 4.86 11.98 9.37 0.29 2.59 -14.84 3.00 -1.79 4.34 0 0 -17.05 2.95 12.80 2.16 0 0 -39.58 -1.85 3.38 9.47 0.83 0.29 -17.68 -17.63 -0.45 4.77 0 0 -25.26 1.27 15.79 2.87 0 0 -42.85 -5.38 11.90 8.65 1.01 -1.70 -25.51 -10.38 2.28 4.54 0 0 -23.47 0.26 7.66 2.50 0 0 -24.24 -1.28 4.61 7.69 0.66 -3.90 -12.73 -8.19 -2.12 3.21 0 0 -51.14 -7.95 12.29 1.92 0 0 -72.20 -16.64 20.97 -4.06 26.61 -1.12 6.39 -5.22 -5.64 -14.17 0 0 52.67 6.13 45.45 -26.12 0 0 0 0 109.37 -27.71 0 0 -26.72 8.08 -6.78 -2.29 -0.46 1.83 -58.05 34.86 97.98 -5.29 0 0 3.13 -12.29 -11.73 -3.01 0 0 49.17 21.55 -13.56 -9.37 0.29 2.59 44.26 -16.28 -19.27 -4.34 0 0 39.43 1.04 -17.18 -2.16 0 0 32.42 -1.98 -6.38 -9.47 0.83 0.29 71.81 -24.27 -17.64 -4.77 0 0 87.27 -15.40 -16.24 -2.87 0 0 44.78 -4.46 -12.79 -8.65 1.01 -1.70 72.40 -20.74 -15.78 -4.54 0 0 80.31 -7.53 -8.92 -2.50 0 0 47.93 -2.94 -7.77 -7.69 0.66 -3.90 85.69 -30.71 -4.49 -3.21 0 0 73.39 -11.48 -8.29 -1.92 0 0 39.93 -4.93 -15.33 8.73 -0 0 32.89 -23.73 44.55 0 -46.66 0 0 49.34 0 0 -40.14 0 -6.10 -10.51 10.45 0 -8.88 14.22 0 0 0 -8.73 0 -0 -17.88 -15.70 -16.72 0 -46.66 0 0 47.24 0 0 -40.14 0 14.89 -27.04 1.16 0 -8.88 14.22 0 0 0 
